# File produced by Open Asset Import Library (http://www.assimp.sf.net)
# (assimp v3.1.128981410)

adobe_mdllib Adobe Dimension.mdl

# vertex positions
v 64.425697 -127.999985 100.000023
v 64.425697 128.000015 99.999977
v -64.425697 128.000015 99.999977
v -64.425697 -127.999985 100.000023
v 72.000000 -128.000015 -92.425674
v 72.000000 127.999985 -92.425720
v 72.000000 128.000015 92.425674
v 72.000000 -127.999985 92.425720
v 70.985245 127.999985 -96.212875
v 68.212852 127.999985 -98.985268
v 64.425697 127.999985 -100.000023
v -64.425697 127.999985 -100.000023
v -68.212852 127.999985 -98.985268
v -70.985245 127.999985 -96.212875
v -72.000000 127.999985 -92.425720
v -72.000000 128.000015 92.425674
v -70.985245 128.000015 96.212830
v -68.212852 128.000015 98.985222
v 68.212852 128.000015 98.985222
v 70.985245 128.000015 96.212830
v -72.000000 -127.999985 92.425720
v -72.000000 -128.000015 -92.425674
v -64.425697 -128.000015 -99.999977
v 64.425697 -128.000015 -99.999977
v -68.212852 -127.999985 98.985268
v -70.985245 -127.999985 96.212875
v -68.212852 -128.000015 -98.985222
v -70.985245 -128.000015 -96.212830
v 70.985245 -128.000015 -96.212830
v 68.212852 -128.000015 -98.985222
v 68.212852 -127.999985 98.985268
v 70.985245 -127.999985 96.212875

# UV coordinates
vt 0.007014 0.948252
vt 0.007014 0.474126
vt 0.245654 0.474126
vt 0.245654 0.948252
vt 0.012149 0.474126
vt 0.012149 0.000000
vt 0.354503 0.000000
vt 0.354503 0.474126
vt 1.000000 0.356383
vt 0.998121 0.363397
vt 0.992986 0.368531
vt 0.985972 0.370411
vt 0.747332 0.370411
vt 0.740318 0.368531
vt 0.735184 0.363397
vt 0.733304 0.356383
vt 0.733304 0.014028
vt 0.735184 0.007014
vt 0.740318 0.001879
vt 0.747332 0.000000
vt 0.985972 0.000000
vt 0.992986 0.001879
vt 0.998121 0.007014
vt 1.000000 0.014028
vt 0.378801 0.474126
vt 0.378801 0.000000
vt 0.721156 0.000000
vt 0.721156 0.474126
vt 0.259682 0.948252
vt 0.259682 0.474126
vt 0.498322 0.474126
vt 0.498322 0.948252
vt 0.252668 0.474126
vt 0.252668 0.948252
vt 0.366652 0.474126
vt 0.366652 0.000000
vt 0.371787 0.000000
vt 0.371787 0.474126
vt 0.252668 0.948252
vt 0.252668 0.474126
vt 0.733304 0.000000
vt 0.733304 0.474126
vt 0.728170 0.474126
vt 0.728170 0.000000
vt 0.005135 0.474126
vt 0.005135 0.000000
vt 0.000000 0.474126
vt 0.000000 0.000000
vt 0.505336 0.474126
vt 0.505336 0.948252
vt 0.000000 0.948252
vt 0.361517 0.474126
vt 0.361517 0.000000
vt 1.000000 0.726794
vt 0.998121 0.733808
vt 0.992986 0.738942
vt 0.985972 0.740822
vt 0.747332 0.740822
vt 0.740318 0.738942
vt 0.735184 0.733808
vt 0.733304 0.726794
vt 0.733304 0.384439
vt 0.735184 0.377425
vt 0.740318 0.372290
vt 0.992986 0.372290
vt 0.998121 0.377425
vt 1.000000 0.384439

# vertex normals
vn 0.130525 0.000000 0.991445
vn -0.130525 0.000000 0.991445
vn 0.991445 -0.000000 -0.130526
vn 0.991445 0.000000 0.130526
vn 0.000000 1.000000 -0.000000
vn -0.991445 0.000000 0.130526
vn -0.991445 -0.000000 -0.130526
vn -0.130525 -0.000000 -0.991445
vn 0.130525 -0.000000 -0.991445
vn -0.499999 0.000000 0.866026
vn -0.866026 0.000000 0.499999
vn -0.499999 -0.000000 -0.866026
vn -0.866026 -0.000000 -0.499999
vn 0.866026 -0.000000 -0.499999
vn 0.499999 -0.000000 -0.866026
vn 0.499999 0.000000 0.866026
vn 0.866026 0.000000 0.499999
vn 0.000000 -1.000000 0.000000

# Mesh
g Cube
usemtl MATERIAL_DEFAULTMATERIAL
f 4/4/2 1/1/1 2/2/1
f 2/2/1 3/3/2 4/4/2
f 8/8/4 5/5/3 6/6/3
f 6/6/3 7/7/4 8/8/4
f 7/24/5 6/9/5 9/10/5
f 7/24/5 9/10/5 10/11/5
f 7/24/5 10/11/5 11/12/5
f 7/24/5 11/12/5 12/13/5
f 7/24/5 12/13/5 13/14/5
f 7/24/5 13/14/5 14/15/5
f 7/24/5 14/15/5 15/16/5
f 7/24/5 15/16/5 16/17/5
f 7/24/5 16/17/5 17/18/5
f 7/24/5 17/18/5 18/19/5
f 7/24/5 18/19/5 3/20/5
f 7/24/5 3/20/5 2/21/5
f 7/24/5 2/21/5 19/22/5
f 19/22/5 20/23/5 7/24/5
f 22/28/7 21/25/6 16/26/6
f 16/26/6 15/27/7 22/28/7
f 24/32/9 23/29/8 12/30/8
f 12/30/8 11/31/9 24/32/9
f 25/34/10 4/4/2 3/3/2
f 3/3/2 18/33/10 25/34/10
f 26/38/11 25/35/10 18/36/10
f 18/36/10 17/37/11 26/38/11
f 21/25/6 26/38/11 17/37/11
f 17/37/11 16/26/6 21/25/6
f 13/40/12 12/30/8 23/29/8
f 23/29/8 27/39/12 13/40/12
f 14/44/13 13/41/12 27/42/12
f 27/42/12 28/43/13 14/44/13
f 15/27/7 14/44/13 28/43/13
f 28/43/13 22/28/7 15/27/7
f 9/46/14 6/6/3 5/5/3
f 5/5/3 29/45/14 9/46/14
f 10/48/15 9/46/14 29/45/14
f 29/45/14 30/47/15 10/48/15
f 11/31/9 10/49/15 30/50/15
f 30/50/15 24/32/9 11/31/9
f 19/47/16 2/2/1 1/1/1
f 1/1/1 31/51/16 19/47/16
f 20/53/17 19/36/16 31/35/16
f 31/35/16 32/52/17 20/53/17
f 7/7/4 20/53/17 32/52/17
f 32/52/17 8/8/4 7/7/4
f 21/67/18 22/54/18 28/55/18
f 21/67/18 28/55/18 27/56/18
f 21/67/18 27/56/18 23/57/18
f 21/67/18 23/57/18 24/58/18
f 21/67/18 24/58/18 30/59/18
f 21/67/18 30/59/18 29/60/18
f 21/67/18 29/60/18 5/61/18
f 21/67/18 5/61/18 8/62/18
f 21/67/18 8/62/18 32/63/18
f 21/67/18 32/63/18 31/64/18
f 21/67/18 31/64/18 1/13/18
f 21/67/18 1/13/18 4/12/18
f 21/67/18 4/12/18 25/65/18
f 25/65/18 26/66/18 21/67/18
